<svg width="229" height="59" viewBox="0 0 229 59" fill="none" xmlns="http://www.w3.org/2000/svg">
<path d="M53.9982 45.9392C50.8469 45.9392 49.4821 47.7867 47.77 47.7867C43.2179 47.7867 47.3614 37.4804 47.3614 37.4804C47.3614 37.4804 32.4632 42.1586 32.4632 37.2876C32.4632 35.1926 35.2174 34.583 35.2174 32.2595C35.2174 30.1834 33.0835 29.0597 30.5526 29.0597C27.9223 29.0597 25.5154 30.1644 25.5154 32.3547C25.5154 34.7735 27.9223 35.821 27.9223 37.1352C27.9223 41.2065 14.5727 38.8112 14.5727 38.8112V58.298C14.5727 58.298 28.1311 60.6983 28.1311 56.6219C28.1311 55.3078 25.0951 54.2766 25.0951 51.8577C25.0951 49.6674 27.3151 48.5628 29.9205 48.5628C32.4763 48.5628 34.6102 49.6865 34.6102 51.7625C34.6102 54.0861 31.856 54.6956 31.856 56.7906C31.856 60.3462 41.6983 58.2953 45.6113 58.2953C45.6113 58.2953 42.9757 51.2721 47.5715 51.2721C50.301 51.2721 51.095 53.3862 54.1223 53.3862C56.827 53.3862 58.2909 51.7483 58.2909 49.7865C58.2909 47.7867 56.8517 45.9392 53.9982 45.9392Z" fill="#030832"/>
<path d="M26.5205 36.2794C26.4666 33.6139 24.2597 32.4911 24.2304 31.0429C24.1524 27.1924 36.4041 30.5207 36.4041 30.5207C36.4041 30.5207 30.6199 17.999 36.3768 17.9156C38.8529 17.8797 39.6205 20.199 42.3667 20.1592C44.8203 20.1236 46.1118 18.2994 46.0685 16.1586C46.0234 13.9337 44.6766 11.9167 42.088 11.9542C39.2292 11.9957 38.0324 14.0495 36.4792 14.072C31.6674 14.1418 34.2697 2.80879 34.2697 2.80879L11.2388 3.14251C11.2388 3.14251 8.63409 14.6521 13.4519 14.5823C15.005 14.5598 16.1718 11.9741 19.0306 11.9327C21.6193 11.8952 22.9628 13.7541 23.0074 15.958C23.0512 18.1198 21.7597 19.944 19.3061 19.9796C16.5599 20.0194 15.7924 17.7001 13.3163 17.736C9.11401 17.7969 11.7066 26.087 11.7736 29.3969C11.7736 29.3969 20.0289 27.0472 20.1077 30.9347C20.1544 33.2435 17.6694 33.9513 17.7213 36.5119C17.7675 38.7997 19.7284 40.01 22.047 39.9764C24.4106 39.9421 26.5694 38.6931 26.5205 36.2794Z" fill="#394CFC"/>
<path d="M55.5762 38V25.1826C55.5762 24.7611 55.4964 24.368 55.3369 24.0034C55.1774 23.6274 54.9609 23.3027 54.6875 23.0293C54.4141 22.7559 54.0894 22.5394 53.7134 22.3799C53.3488 22.2204 52.9557 22.1406 52.5342 22.1406H51.4917C51.0701 22.1406 50.6714 22.2204 50.2954 22.3799C49.9308 22.5394 49.6061 22.7559 49.3213 23.0293C49.0479 23.3027 48.8314 23.6274 48.6719 24.0034C48.5124 24.368 48.4326 24.7611 48.4326 25.1826V38H46.3477V25.1826C46.3477 24.7611 46.2679 24.368 46.1084 24.0034C45.9489 23.6274 45.7267 23.3027 45.4419 23.0293C45.1685 22.7559 44.8438 22.5394 44.4678 22.3799C44.1032 22.2204 43.7101 22.1406 43.2886 22.1406H42.2461C41.8245 22.1406 41.4258 22.2204 41.0498 22.3799C40.6852 22.5394 40.3662 22.7559 40.0928 23.0293C39.8193 23.3027 39.6029 23.6274 39.4434 24.0034C39.2839 24.368 39.2041 24.7611 39.2041 25.1826V38H37.1021V20.5H37.8027L38.9478 22.2773C39.4263 21.6279 40.0244 21.1152 40.7422 20.7393C41.4714 20.3519 42.2632 20.1582 43.1177 20.1582H43.2886C44.2798 20.1582 45.1742 20.4032 45.9717 20.8931C46.7692 21.383 47.3844 22.0324 47.8174 22.8413C48.0339 22.4425 48.3016 22.078 48.6206 21.7476C48.9396 21.4172 49.2928 21.138 49.6802 20.9102C50.0675 20.6709 50.4891 20.4886 50.9448 20.3633C51.4006 20.2266 51.8734 20.1582 52.3633 20.1582H52.5342C53.2406 20.1582 53.9071 20.2949 54.5337 20.5684C55.1603 20.8304 55.7072 21.195 56.1743 21.6621C56.6414 22.1292 57.006 22.6761 57.2681 23.3027C57.5415 23.9294 57.6782 24.5959 57.6782 25.3022V38H55.5762ZM72.2388 38L65.0952 29.25L72.2388 20.5H74.9731L67.6587 29.25L74.9731 38H72.2388ZM62.583 38V13.4932H64.6851V38H62.583ZM89.4653 33.1978C89.4653 33.9041 89.3286 34.5706 89.0552 35.1973C88.7931 35.8239 88.4285 36.3708 87.9614 36.8379C87.4943 37.305 86.9474 37.6753 86.3208 37.9487C85.6942 38.2108 85.0277 38.3418 84.3213 38.3418H82.9199C82.2135 38.3418 81.547 38.2108 80.9204 37.9487C80.2938 37.6753 79.7469 37.305 79.2798 36.8379C78.8127 36.3708 78.4424 35.8239 78.1689 35.1973C77.9069 34.5706 77.7759 33.9041 77.7759 33.1978V13.4932H79.8779V21.9697C80.3564 21.4001 80.9318 20.9557 81.604 20.6367C82.2762 20.3177 83.0054 20.1582 83.7915 20.1582H84.3213C85.0277 20.1582 85.6942 20.2949 86.3208 20.5684C86.9474 20.8304 87.4943 21.195 87.9614 21.6621C88.4285 22.1292 88.7931 22.6761 89.0552 23.3027C89.3286 23.9294 89.4653 24.5959 89.4653 25.3022V33.1978ZM87.3633 25.1826C87.3633 24.7611 87.2835 24.368 87.124 24.0034C86.9645 23.6274 86.748 23.3027 86.4746 23.0293C86.2012 22.7559 85.8765 22.5394 85.5005 22.3799C85.1359 22.2204 84.7428 22.1406 84.3213 22.1406H82.9199C82.4984 22.1406 82.0996 22.2204 81.7236 22.3799C81.359 22.5394 81.04 22.7559 80.7666 23.0293C80.4932 23.3027 80.2767 23.6274 80.1172 24.0034C79.9577 24.368 79.8779 24.7611 79.8779 25.1826V33.3174C79.8779 33.7389 79.9577 34.1377 80.1172 34.5137C80.2767 34.8783 80.4932 35.1973 80.7666 35.4707C81.04 35.7441 81.359 35.9606 81.7236 36.1201C82.0996 36.2796 82.4984 36.3594 82.9199 36.3594H84.3213C84.7428 36.3594 85.1359 36.2796 85.5005 36.1201C85.8765 35.9606 86.2012 35.7441 86.4746 35.4707C86.748 35.1973 86.9645 34.8783 87.124 34.5137C87.2835 34.1377 87.3633 33.7389 87.3633 33.3174V25.1826Z" fill="#F14646"/>
<path d="M107.803 32.3262C107.803 33.1579 107.643 33.9383 107.324 34.6675C107.017 35.3966 106.589 36.0347 106.042 36.5815C105.496 37.1284 104.858 37.5614 104.128 37.8804C103.399 38.188 102.619 38.3418 101.787 38.3418H100.044C99.2122 38.3418 98.4261 38.188 97.6855 37.8804C96.9564 37.5614 96.3184 37.1284 95.7715 36.5815C95.2246 36.0347 94.7917 35.3966 94.4727 34.6675C94.165 33.9383 94.0112 33.1579 94.0112 32.3262V19.167C94.0112 18.3353 94.165 17.5549 94.4727 16.8257C94.7917 16.0965 95.2246 15.4585 95.7715 14.9116C96.3184 14.3647 96.9564 13.9375 97.6855 13.6299C98.4261 13.3109 99.2122 13.1514 100.044 13.1514H101.787C102.619 13.1514 103.399 13.3109 104.128 13.6299C104.858 13.9375 105.496 14.3647 106.042 14.9116C106.589 15.4585 107.017 16.0965 107.324 16.8257C107.643 17.5549 107.803 18.3353 107.803 19.167V20.1582L105.598 20.5V19.167C105.598 18.6201 105.496 18.1131 105.291 17.646C105.085 17.1675 104.806 16.7516 104.453 16.3984C104.1 16.0452 103.684 15.7661 103.206 15.561C102.738 15.356 102.231 15.2534 101.685 15.2534H100.146C99.5996 15.2534 99.0869 15.356 98.6084 15.561C98.1413 15.7661 97.7254 16.0452 97.3608 16.3984C97.0076 16.7516 96.7285 17.1675 96.5234 17.646C96.3184 18.1131 96.2158 18.6201 96.2158 19.167V32.3262C96.2158 32.873 96.3184 33.3857 96.5234 33.8643C96.7285 34.3314 97.0076 34.7472 97.3608 35.1118C97.7254 35.465 98.1413 35.7441 98.6084 35.9492C99.0869 36.1543 99.5996 36.2568 100.146 36.2568H101.685C102.231 36.2568 102.738 36.1543 103.206 35.9492C103.684 35.7441 104.1 35.465 104.453 35.1118C104.806 34.7472 105.085 34.3314 105.291 33.8643C105.496 33.3857 105.598 32.873 105.598 32.3262V30.9932L107.803 31.3521V32.3262ZM123.713 33.1978C123.713 33.9041 123.577 34.5706 123.303 35.1973C123.041 35.8239 122.677 36.3708 122.209 36.8379C121.742 37.305 121.195 37.6753 120.569 37.9487C119.942 38.2108 119.276 38.3418 118.569 38.3418H117.168C116.462 38.3418 115.795 38.2108 115.168 37.9487C114.542 37.6753 113.995 37.305 113.528 36.8379C113.061 36.3708 112.69 35.8239 112.417 35.1973C112.155 34.5706 112.024 33.9041 112.024 33.1978V25.3022C112.024 24.5959 112.155 23.9294 112.417 23.3027C112.69 22.6761 113.061 22.1292 113.528 21.6621C113.995 21.195 114.542 20.8304 115.168 20.5684C115.795 20.2949 116.462 20.1582 117.168 20.1582H118.569C119.276 20.1582 119.942 20.2949 120.569 20.5684C121.195 20.8304 121.742 21.195 122.209 21.6621C122.677 22.1292 123.041 22.6761 123.303 23.3027C123.577 23.9294 123.713 24.5959 123.713 25.3022V29.4209H114.126V33.3174C114.126 33.7389 114.206 34.1377 114.365 34.5137C114.525 34.8783 114.741 35.1973 115.015 35.4707C115.288 35.7441 115.607 35.9606 115.972 36.1201C116.348 36.2796 116.746 36.3594 117.168 36.3594H118.569C118.991 36.3594 119.384 36.2796 119.749 36.1201C120.125 35.9606 120.449 35.7441 120.723 35.4707C120.996 35.1973 121.213 34.8783 121.372 34.5137C121.532 34.1377 121.611 33.7389 121.611 33.3174V32.1553L123.713 32.4971V33.1978ZM121.611 25.1826C121.611 24.7611 121.532 24.368 121.372 24.0034C121.213 23.6274 120.996 23.3027 120.723 23.0293C120.449 22.7559 120.125 22.5394 119.749 22.3799C119.384 22.2204 118.991 22.1406 118.569 22.1406H117.168C116.746 22.1406 116.348 22.2204 115.972 22.3799C115.607 22.5394 115.288 22.7559 115.015 23.0293C114.741 23.3027 114.525 23.6274 114.365 24.0034C114.206 24.368 114.126 24.7611 114.126 25.1826V27.7803H121.611V25.1826ZM137.505 38V25.1826C137.505 24.7611 137.425 24.368 137.266 24.0034C137.106 23.6274 136.89 23.3027 136.616 23.0293C136.343 22.7559 136.018 22.5394 135.642 22.3799C135.278 22.2204 134.884 22.1406 134.463 22.1406H133.062C132.64 22.1406 132.241 22.2204 131.865 22.3799C131.501 22.5394 131.182 22.7559 130.908 23.0293C130.635 23.3027 130.418 23.6274 130.259 24.0034C130.099 24.368 130.02 24.7611 130.02 25.1826V38H127.917V20.5H128.618L129.763 22.2773C130.242 21.6279 130.84 21.1152 131.558 20.7393C132.287 20.3519 133.079 20.1582 133.933 20.1582H134.463C135.169 20.1582 135.836 20.2949 136.462 20.5684C137.089 20.8304 137.636 21.195 138.103 21.6621C138.57 22.1292 138.935 22.6761 139.197 23.3027C139.47 23.9294 139.607 24.5959 139.607 25.3022V38H137.505ZM148.955 22.4995C148.534 22.4995 148.135 22.5793 147.759 22.7388C147.394 22.8983 147.075 23.1147 146.802 23.3882C146.528 23.6616 146.312 23.9863 146.152 24.3623C145.993 24.7269 145.913 25.12 145.913 25.5415V38H143.811V20.5H144.512L145.657 22.2773C146.135 21.6279 146.733 21.1152 147.451 20.7393C148.18 20.3519 148.972 20.1582 149.827 20.1582H151.057V22.4995H148.955ZM164.849 38L163.687 36.2568C163.208 36.8835 162.61 37.3905 161.892 37.7778C161.174 38.1538 160.388 38.3418 159.534 38.3418H159.004C158.298 38.3418 157.631 38.2108 157.004 37.9487C156.378 37.6753 155.831 37.305 155.364 36.8379C154.897 36.3708 154.526 35.8239 154.253 35.1973C153.991 34.5706 153.86 33.9041 153.86 33.1978V33.0269C153.86 32.3205 153.991 31.654 154.253 31.0273C154.526 30.4007 154.897 29.8538 155.364 29.3867C155.831 28.9196 156.378 28.555 157.004 28.293C157.631 28.0195 158.298 27.8828 159.004 27.8828H163.447V25.1826C163.447 24.7611 163.368 24.368 163.208 24.0034C163.049 23.6274 162.832 23.3027 162.559 23.0293C162.285 22.7559 161.96 22.5394 161.584 22.3799C161.22 22.2204 160.827 22.1406 160.405 22.1406H159.175C158.753 22.1406 158.354 22.2204 157.979 22.3799C157.614 22.5394 157.295 22.7559 157.021 23.0293C156.748 23.3027 156.532 23.6274 156.372 24.0034C156.213 24.368 156.133 24.7611 156.133 25.1826V25.8149L154.031 25.4731V25.3022C154.031 24.5959 154.162 23.9294 154.424 23.3027C154.697 22.6761 155.068 22.1292 155.535 21.6621C156.002 21.195 156.549 20.8304 157.175 20.5684C157.802 20.2949 158.468 20.1582 159.175 20.1582H160.405C161.112 20.1582 161.778 20.2949 162.405 20.5684C163.031 20.8304 163.578 21.195 164.045 21.6621C164.513 22.1292 164.877 22.6761 165.139 23.3027C165.413 23.9294 165.549 24.5959 165.549 25.3022V38H164.849ZM163.447 29.5234H159.004C158.582 29.5234 158.184 29.6032 157.808 29.7627C157.443 29.9222 157.124 30.1444 156.851 30.4292C156.577 30.7026 156.361 31.0273 156.201 31.4033C156.042 31.7679 155.962 32.161 155.962 32.5825V33.3174C155.962 33.7389 156.042 34.1377 156.201 34.5137C156.361 34.8783 156.577 35.1973 156.851 35.4707C157.124 35.7441 157.443 35.9606 157.808 36.1201C158.184 36.2796 158.582 36.3594 159.004 36.3594H160.405C160.827 36.3594 161.22 36.2796 161.584 36.1201C161.96 35.9606 162.285 35.7441 162.559 35.4707C162.832 35.1973 163.049 34.8783 163.208 34.5137C163.368 34.1377 163.447 33.7389 163.447 33.3174V29.5234ZM170.454 38V13.4932H172.556V38H170.454Z" fill="#394CFC"/>
</svg>
